<mxfile host="65bd71144e">
    <diagram id="p1MARaqlvG9aqOaZrADo" name="Page-1">
        <mxGraphModel dx="756" dy="567" grid="0" gridSize="10" guides="1" tooltips="1" connect="1" arrows="1" fold="1" page="1" pageScale="1" pageWidth="827" pageHeight="1169" math="0" shadow="0">
            <root>
                <mxCell id="0"/>
                <mxCell id="1" parent="0"/>
                <mxCell id="QV39Lm6rksdgxyd1rdHf-4" value="情况一： 远程没有最新发布分支，在本地主动生成一个版本分支" style="rounded=0;whiteSpace=wrap;html=1;align=left;verticalAlign=top;" parent="1" vertex="1">
                    <mxGeometry x="580" y="110" width="509" height="207" as="geometry"/>
                </mxCell>
                <mxCell id="DFjBzyQnlfqPb-v60dS5-18" value="" style="edgeStyle=orthogonalEdgeStyle;rounded=0;orthogonalLoop=1;jettySize=auto;html=1;" parent="1" source="DFjBzyQnlfqPb-v60dS5-1" target="DFjBzyQnlfqPb-v60dS5-4" edge="1">
                    <mxGeometry relative="1" as="geometry"/>
                </mxCell>
                <mxCell id="DFjBzyQnlfqPb-v60dS5-1" value="获取远程发布分支列表" style="rounded=0;whiteSpace=wrap;html=1;fillColor=#fff2cc;strokeColor=#d6b656;" parent="1" vertex="1">
                    <mxGeometry x="277.5" y="200" width="202.5" height="40" as="geometry"/>
                </mxCell>
                <mxCell id="DFjBzyQnlfqPb-v60dS5-17" value="" style="edgeStyle=orthogonalEdgeStyle;rounded=0;orthogonalLoop=1;jettySize=auto;html=1;" parent="1" source="DFjBzyQnlfqPb-v60dS5-2" target="DFjBzyQnlfqPb-v60dS5-1" edge="1">
                    <mxGeometry relative="1" as="geometry"/>
                </mxCell>
                <mxCell id="DFjBzyQnlfqPb-v60dS5-2" value="Start" style="ellipse;shape=doubleEllipse;whiteSpace=wrap;html=1;aspect=fixed;fillColor=#d5e8d4;strokeColor=#82b366;" parent="1" vertex="1">
                    <mxGeometry x="358.75" y="120" width="40" height="40" as="geometry"/>
                </mxCell>
                <mxCell id="DFjBzyQnlfqPb-v60dS5-19" value="" style="edgeStyle=orthogonalEdgeStyle;rounded=0;orthogonalLoop=1;jettySize=auto;html=1;" parent="1" source="DFjBzyQnlfqPb-v60dS5-4" target="DFjBzyQnlfqPb-v60dS5-5" edge="1">
                    <mxGeometry relative="1" as="geometry"/>
                </mxCell>
                <mxCell id="DFjBzyQnlfqPb-v60dS5-4" value="获取远程最新发布分支号" style="rounded=0;whiteSpace=wrap;html=1;fillColor=#fff2cc;strokeColor=#d6b656;" parent="1" vertex="1">
                    <mxGeometry x="277.5" y="280" width="202.5" height="40" as="geometry"/>
                </mxCell>
                <mxCell id="DFjBzyQnlfqPb-v60dS5-20" value="不存在" style="edgeStyle=orthogonalEdgeStyle;rounded=0;orthogonalLoop=1;jettySize=auto;html=1;entryX=1;entryY=0.5;entryDx=0;entryDy=0;" parent="1" source="DFjBzyQnlfqPb-v60dS5-5" target="DFjBzyQnlfqPb-v60dS5-7" edge="1">
                    <mxGeometry relative="1" as="geometry"/>
                </mxCell>
                <mxCell id="DFjBzyQnlfqPb-v60dS5-21" value="存在" style="edgeStyle=orthogonalEdgeStyle;rounded=0;orthogonalLoop=1;jettySize=auto;html=1;" parent="1" source="DFjBzyQnlfqPb-v60dS5-5" target="DFjBzyQnlfqPb-v60dS5-6" edge="1">
                    <mxGeometry relative="1" as="geometry"/>
                </mxCell>
                <mxCell id="DFjBzyQnlfqPb-v60dS5-5" value="最新发布版本号&lt;br&gt;是否存在" style="rhombus;whiteSpace=wrap;html=1;fillColor=#e1d5e7;strokeColor=#9673a6;" parent="1" vertex="1">
                    <mxGeometry x="278.75" y="360" width="200" height="60" as="geometry"/>
                </mxCell>
                <mxCell id="DFjBzyQnlfqPb-v60dS5-22" value="小于" style="edgeStyle=orthogonalEdgeStyle;rounded=0;orthogonalLoop=1;jettySize=auto;html=1;" parent="1" source="DFjBzyQnlfqPb-v60dS5-6" target="DFjBzyQnlfqPb-v60dS5-9" edge="1">
                    <mxGeometry relative="1" as="geometry"/>
                </mxCell>
                <mxCell id="DFjBzyQnlfqPb-v60dS5-26" style="edgeStyle=orthogonalEdgeStyle;rounded=0;orthogonalLoop=1;jettySize=auto;html=1;entryX=1;entryY=0.5;entryDx=0;entryDy=0;" parent="1" source="DFjBzyQnlfqPb-v60dS5-6" target="DFjBzyQnlfqPb-v60dS5-12" edge="1">
                    <mxGeometry relative="1" as="geometry">
                        <Array as="points">
                            <mxPoint x="499" y="510"/>
                            <mxPoint x="499" y="860"/>
                        </Array>
                    </mxGeometry>
                </mxCell>
                <mxCell id="QV39Lm6rksdgxyd1rdHf-1" value="大于" style="edgeLabel;html=1;align=center;verticalAlign=middle;resizable=0;points=[];" parent="DFjBzyQnlfqPb-v60dS5-26" vertex="1" connectable="0">
                    <mxGeometry x="-0.3122" y="1" relative="1" as="geometry">
                        <mxPoint as="offset"/>
                    </mxGeometry>
                </mxCell>
                <mxCell id="DFjBzyQnlfqPb-v60dS5-6" value="本地分支是否大于远程&lt;br&gt;分支版本号" style="rhombus;whiteSpace=wrap;html=1;fillColor=#e1d5e7;strokeColor=#9673a6;" parent="1" vertex="1">
                    <mxGeometry x="278.5" y="480" width="200" height="60" as="geometry"/>
                </mxCell>
                <mxCell id="DFjBzyQnlfqPb-v60dS5-27" style="edgeStyle=orthogonalEdgeStyle;rounded=0;orthogonalLoop=1;jettySize=auto;html=1;entryX=0;entryY=0.5;entryDx=0;entryDy=0;" parent="1" source="DFjBzyQnlfqPb-v60dS5-7" target="DFjBzyQnlfqPb-v60dS5-11" edge="1">
                    <mxGeometry relative="1" as="geometry">
                        <Array as="points">
                            <mxPoint x="121" y="780"/>
                        </Array>
                    </mxGeometry>
                </mxCell>
                <mxCell id="DFjBzyQnlfqPb-v60dS5-7" value="获取远程最新发布分支号" style="rounded=0;whiteSpace=wrap;html=1;fillColor=#fff2cc;strokeColor=#d6b656;" parent="1" vertex="1">
                    <mxGeometry x="40" y="440" width="162.5" height="40" as="geometry"/>
                </mxCell>
                <mxCell id="DFjBzyQnlfqPb-v60dS5-23" value="" style="edgeStyle=orthogonalEdgeStyle;rounded=0;orthogonalLoop=1;jettySize=auto;html=1;" parent="1" source="DFjBzyQnlfqPb-v60dS5-9" target="DFjBzyQnlfqPb-v60dS5-10" edge="1">
                    <mxGeometry relative="1" as="geometry"/>
                </mxCell>
                <mxCell id="DFjBzyQnlfqPb-v60dS5-9" value="用户选择升级版本号模式&lt;br&gt;major/minor/patch" style="rounded=0;whiteSpace=wrap;html=1;fillColor=#fff2cc;strokeColor=#d6b656;" parent="1" vertex="1">
                    <mxGeometry x="277.25" y="600" width="202.5" height="40" as="geometry"/>
                </mxCell>
                <mxCell id="DFjBzyQnlfqPb-v60dS5-24" value="" style="edgeStyle=orthogonalEdgeStyle;rounded=0;orthogonalLoop=1;jettySize=auto;html=1;" parent="1" source="DFjBzyQnlfqPb-v60dS5-10" target="DFjBzyQnlfqPb-v60dS5-11" edge="1">
                    <mxGeometry relative="1" as="geometry"/>
                </mxCell>
                <mxCell id="DFjBzyQnlfqPb-v60dS5-10" value="获取升级后的&lt;br&gt;本地开发分支号" style="rounded=0;whiteSpace=wrap;html=1;fillColor=#fff2cc;strokeColor=#d6b656;" parent="1" vertex="1">
                    <mxGeometry x="277.5" y="680" width="202.5" height="40" as="geometry"/>
                </mxCell>
                <mxCell id="DFjBzyQnlfqPb-v60dS5-25" value="" style="edgeStyle=orthogonalEdgeStyle;rounded=0;orthogonalLoop=1;jettySize=auto;html=1;" parent="1" source="DFjBzyQnlfqPb-v60dS5-11" target="DFjBzyQnlfqPb-v60dS5-12" edge="1">
                    <mxGeometry relative="1" as="geometry"/>
                </mxCell>
                <mxCell id="DFjBzyQnlfqPb-v60dS5-11" value="获取升级后的版本号写入package.json" style="rounded=0;whiteSpace=wrap;html=1;fillColor=#fff2cc;strokeColor=#d6b656;" parent="1" vertex="1">
                    <mxGeometry x="277.25" y="760" width="202.5" height="40" as="geometry"/>
                </mxCell>
                <mxCell id="DFjBzyQnlfqPb-v60dS5-12" value="end" style="ellipse;shape=doubleEllipse;whiteSpace=wrap;html=1;aspect=fixed;fillColor=#f8cecc;strokeColor=#b85450;" parent="1" vertex="1">
                    <mxGeometry x="358.75" y="840" width="40" height="40" as="geometry"/>
                </mxCell>
                <mxCell id="QV39Lm6rksdgxyd1rdHf-11" style="edgeStyle=orthogonalEdgeStyle;rounded=0;orthogonalLoop=1;jettySize=auto;html=1;exitX=0.5;exitY=1;exitDx=0;exitDy=0;entryX=0.5;entryY=0;entryDx=0;entryDy=0;" parent="1" source="QV39Lm6rksdgxyd1rdHf-3" target="QV39Lm6rksdgxyd1rdHf-5" edge="1">
                    <mxGeometry relative="1" as="geometry"/>
                </mxCell>
                <mxCell id="QV39Lm6rksdgxyd1rdHf-12" style="edgeStyle=orthogonalEdgeStyle;rounded=0;orthogonalLoop=1;jettySize=auto;html=1;exitX=0.5;exitY=1;exitDx=0;exitDy=0;" parent="1" source="QV39Lm6rksdgxyd1rdHf-3" target="QV39Lm6rksdgxyd1rdHf-6" edge="1">
                    <mxGeometry relative="1" as="geometry"/>
                </mxCell>
                <mxCell id="QV39Lm6rksdgxyd1rdHf-13" style="edgeStyle=orthogonalEdgeStyle;rounded=0;orthogonalLoop=1;jettySize=auto;html=1;exitX=0.5;exitY=1;exitDx=0;exitDy=0;" parent="1" source="QV39Lm6rksdgxyd1rdHf-3" target="QV39Lm6rksdgxyd1rdHf-7" edge="1">
                    <mxGeometry relative="1" as="geometry"/>
                </mxCell>
                <mxCell id="QV39Lm6rksdgxyd1rdHf-3" value="major/1.0.0" style="rounded=0;whiteSpace=wrap;html=1;" parent="1" vertex="1">
                    <mxGeometry x="688" y="186" width="81" height="30" as="geometry"/>
                </mxCell>
                <mxCell id="QV39Lm6rksdgxyd1rdHf-5" value="major/2.0.0" style="rounded=0;whiteSpace=wrap;html=1;" parent="1" vertex="1">
                    <mxGeometry x="592" y="263" width="81" height="30" as="geometry"/>
                </mxCell>
                <mxCell id="QV39Lm6rksdgxyd1rdHf-6" value="minor/1.1.0" style="rounded=0;whiteSpace=wrap;html=1;" parent="1" vertex="1">
                    <mxGeometry x="688" y="263" width="81" height="30" as="geometry"/>
                </mxCell>
                <mxCell id="QV39Lm6rksdgxyd1rdHf-7" value="patch/1.0.1" style="rounded=0;whiteSpace=wrap;html=1;" parent="1" vertex="1">
                    <mxGeometry x="784" y="263" width="81" height="30" as="geometry"/>
                </mxCell>
                <mxCell id="QV39Lm6rksdgxyd1rdHf-8" value="版本规范&lt;br&gt;major/minor/patch" style="shape=document;whiteSpace=wrap;html=1;boundedLbl=1;" parent="1" vertex="1">
                    <mxGeometry x="596" y="141" width="87" height="48" as="geometry"/>
                </mxCell>
                <mxCell id="QV39Lm6rksdgxyd1rdHf-14" value="master" style="rounded=0;whiteSpace=wrap;html=1;" parent="1" vertex="1">
                    <mxGeometry x="957" y="189" width="81" height="30" as="geometry"/>
                </mxCell>
                <mxCell id="QV39Lm6rksdgxyd1rdHf-16" value="情况二： 远程存在最新的发布分支 （提供选择major/minor/patch）" style="rounded=0;whiteSpace=wrap;html=1;align=left;verticalAlign=top;" parent="1" vertex="1">
                    <mxGeometry x="580" y="356.5" width="509" height="207" as="geometry"/>
                </mxCell>
                <mxCell id="QV39Lm6rksdgxyd1rdHf-17" style="edgeStyle=orthogonalEdgeStyle;rounded=0;orthogonalLoop=1;jettySize=auto;html=1;exitX=0.5;exitY=1;exitDx=0;exitDy=0;entryX=0.5;entryY=0;entryDx=0;entryDy=0;" parent="1" source="QV39Lm6rksdgxyd1rdHf-19" target="QV39Lm6rksdgxyd1rdHf-20" edge="1">
                    <mxGeometry relative="1" as="geometry"/>
                </mxCell>
                <mxCell id="QV39Lm6rksdgxyd1rdHf-18" style="edgeStyle=orthogonalEdgeStyle;rounded=0;orthogonalLoop=1;jettySize=auto;html=1;exitX=0.5;exitY=1;exitDx=0;exitDy=0;" parent="1" source="QV39Lm6rksdgxyd1rdHf-19" target="QV39Lm6rksdgxyd1rdHf-22" edge="1">
                    <mxGeometry relative="1" as="geometry"/>
                </mxCell>
                <mxCell id="QV39Lm6rksdgxyd1rdHf-25" style="edgeStyle=orthogonalEdgeStyle;rounded=0;orthogonalLoop=1;jettySize=auto;html=1;exitX=1;exitY=0.5;exitDx=0;exitDy=0;" parent="1" source="QV39Lm6rksdgxyd1rdHf-19" target="QV39Lm6rksdgxyd1rdHf-24" edge="1">
                    <mxGeometry relative="1" as="geometry"/>
                </mxCell>
                <mxCell id="QV39Lm6rksdgxyd1rdHf-19" value="major/1.0.0" style="rounded=0;whiteSpace=wrap;html=1;" parent="1" vertex="1">
                    <mxGeometry x="690" y="441" width="81" height="30" as="geometry"/>
                </mxCell>
                <mxCell id="QV39Lm6rksdgxyd1rdHf-20" value="major/2.0.0" style="rounded=0;whiteSpace=wrap;html=1;" parent="1" vertex="1">
                    <mxGeometry x="594" y="518" width="81" height="30" as="geometry"/>
                </mxCell>
                <mxCell id="QV39Lm6rksdgxyd1rdHf-21" value="minor/1.1.0" style="rounded=0;whiteSpace=wrap;html=1;" parent="1" vertex="1">
                    <mxGeometry x="690" y="518" width="81" height="30" as="geometry"/>
                </mxCell>
                <mxCell id="QV39Lm6rksdgxyd1rdHf-22" value="patch/1.0.1" style="rounded=0;whiteSpace=wrap;html=1;" parent="1" vertex="1">
                    <mxGeometry x="786" y="518" width="81" height="30" as="geometry"/>
                </mxCell>
                <mxCell id="QV39Lm6rksdgxyd1rdHf-23" value="版本规范&lt;br&gt;major/minor/patch" style="shape=document;whiteSpace=wrap;html=1;boundedLbl=1;" parent="1" vertex="1">
                    <mxGeometry x="598" y="396" width="87" height="48" as="geometry"/>
                </mxCell>
                <mxCell id="QV39Lm6rksdgxyd1rdHf-24" value="master&lt;br&gt;release/1.0.0" style="rounded=0;whiteSpace=wrap;html=1;" parent="1" vertex="1">
                    <mxGeometry x="957" y="441" width="81" height="30" as="geometry"/>
                </mxCell>
                <mxCell id="QV39Lm6rksdgxyd1rdHf-26" value="情况三： 本地分支大于远程分支" style="rounded=0;whiteSpace=wrap;html=1;align=left;verticalAlign=top;" parent="1" vertex="1">
                    <mxGeometry x="580" y="585" width="509" height="121" as="geometry"/>
                </mxCell>
                <mxCell id="QV39Lm6rksdgxyd1rdHf-29" style="edgeStyle=orthogonalEdgeStyle;rounded=0;orthogonalLoop=1;jettySize=auto;html=1;exitX=1;exitY=0.5;exitDx=0;exitDy=0;" parent="1" source="QV39Lm6rksdgxyd1rdHf-27" target="QV39Lm6rksdgxyd1rdHf-28" edge="1">
                    <mxGeometry relative="1" as="geometry"/>
                </mxCell>
                <mxCell id="QV39Lm6rksdgxyd1rdHf-27" value="dev/1.1.0" style="rounded=0;whiteSpace=wrap;html=1;" parent="1" vertex="1">
                    <mxGeometry x="604" y="643" width="81" height="30" as="geometry"/>
                </mxCell>
                <mxCell id="QV39Lm6rksdgxyd1rdHf-28" value="master&lt;br&gt;release/1.0.0" style="rounded=0;whiteSpace=wrap;html=1;" parent="1" vertex="1">
                    <mxGeometry x="943" y="643" width="81" height="30" as="geometry"/>
                </mxCell>
                <mxCell id="QV39Lm6rksdgxyd1rdHf-30" value="情况四： 本地分支小于远程分支 （进行分支升级）" style="rounded=0;whiteSpace=wrap;html=1;align=left;verticalAlign=top;" parent="1" vertex="1">
                    <mxGeometry x="580" y="733" width="509" height="121" as="geometry"/>
                </mxCell>
                <mxCell id="QV39Lm6rksdgxyd1rdHf-31" style="edgeStyle=orthogonalEdgeStyle;rounded=0;orthogonalLoop=1;jettySize=auto;html=1;exitX=1;exitY=0.5;exitDx=0;exitDy=0;" parent="1" source="QV39Lm6rksdgxyd1rdHf-32" target="QV39Lm6rksdgxyd1rdHf-33" edge="1">
                    <mxGeometry relative="1" as="geometry"/>
                </mxCell>
                <mxCell id="QV39Lm6rksdgxyd1rdHf-32" value="dev/1.0.0" style="rounded=0;whiteSpace=wrap;html=1;" parent="1" vertex="1">
                    <mxGeometry x="604" y="791" width="81" height="30" as="geometry"/>
                </mxCell>
                <mxCell id="QV39Lm6rksdgxyd1rdHf-33" value="master&lt;br&gt;release/1.1.0" style="rounded=0;whiteSpace=wrap;html=1;" parent="1" vertex="1">
                    <mxGeometry x="943" y="791" width="81" height="30" as="geometry"/>
                </mxCell>
            </root>
        </mxGraphModel>
    </diagram>
</mxfile>